<svg xmlns="http://www.w3.org/2000/svg" viewBox="0 0 1280 720" role="img" aria-labelledby="title desc">
  <title id="title">工程計算機作品縮圖</title>
  <desc id="desc">顯示工程計算機介面與按鍵的縮圖</desc>
  <defs>
    <linearGradient id="bg" x1="0" y1="0" x2="1" y2="1">
      <stop offset="0" stop-color="#dfe7ff"/>
      <stop offset="1" stop-color="#b6c6ff"/>
    </linearGradient>
    <linearGradient id="calc" x1="0" y1="0" x2="1" y2="1">
      <stop offset="0" stop-color="#22334a"/>
      <stop offset="1" stop-color="#111b28"/>
    </linearGradient>
    <linearGradient id="screen" x1="0" y1="0" x2="1" y2="1">
      <stop offset="0" stop-color="#9df0d0"/>
      <stop offset="1" stop-color="#4ad3b2"/>
    </linearGradient>
  </defs>
  <rect width="1280" height="720" fill="url(#bg)"/>
  <circle cx="1040" cy="130" r="150" fill="#7c8cff" fill-opacity="0.18"/>
  <circle cx="210" cy="585" r="170" fill="#5ad1b8" fill-opacity="0.22"/>
  <rect x="395" y="80" width="490" height="560" rx="40" fill="url(#calc)" stroke="#ffffff" stroke-opacity="0.1"/>
  <rect x="445" y="130" width="390" height="90" rx="18" fill="url(#screen)"/>
  <text x="640" y="188" font-size="52" font-family="Noto Sans TC, sans-serif" text-anchor="middle" fill="#163b35">123.45</text>
  <g fill="#f2f5ff">
    <rect x="445" y="250" width="76" height="58" rx="12"/>
    <rect x="535" y="250" width="76" height="58" rx="12"/>
    <rect x="625" y="250" width="76" height="58" rx="12"/>
    <rect x="715" y="250" width="76" height="58" rx="12"/>
    <rect x="445" y="324" width="76" height="58" rx="12"/>
    <rect x="535" y="324" width="76" height="58" rx="12"/>
    <rect x="625" y="324" width="76" height="58" rx="12"/>
    <rect x="715" y="324" width="76" height="58" rx="12"/>
    <rect x="445" y="398" width="76" height="58" rx="12"/>
    <rect x="535" y="398" width="76" height="58" rx="12"/>
    <rect x="625" y="398" width="76" height="58" rx="12"/>
    <rect x="715" y="398" width="76" height="58" rx="12"/>
    <rect x="445" y="472" width="166" height="58" rx="12"/>
    <rect x="625" y="472" width="166" height="58" rx="12"/>
  </g>
  <text x="483" y="288" font-size="26" font-family="Noto Sans TC, sans-serif" text-anchor="middle" fill="#22334a">sin</text>
  <text x="573" y="288" font-size="26" font-family="Noto Sans TC, sans-serif" text-anchor="middle" fill="#22334a">cos</text>
  <text x="663" y="288" font-size="26" font-family="Noto Sans TC, sans-serif" text-anchor="middle" fill="#22334a">tan</text>
  <text x="753" y="288" font-size="26" font-family="Noto Sans TC, sans-serif" text-anchor="middle" fill="#22334a">÷</text>
</svg>
