<svg xmlns="http://www.w3.org/2000/svg" viewBox="0 0 1280 720" role="img" aria-labelledby="title desc">
  <title id="title">打地鼠作品縮圖</title>
  <desc id="desc">顯示地鼠與洞口的卡通風格縮圖</desc>
  <defs>
    <linearGradient id="sky" x1="0" y1="0" x2="0" y2="1">
      <stop offset="0" stop-color="#bde8ff"/>
      <stop offset="1" stop-color="#f8fdff"/>
    </linearGradient>
    <linearGradient id="grass" x1="0" y1="0" x2="0" y2="1">
      <stop offset="0" stop-color="#84cf66"/>
      <stop offset="1" stop-color="#4f8d38"/>
    </linearGradient>
    <linearGradient id="mole" x1="0" y1="0" x2="0" y2="1">
      <stop offset="0" stop-color="#ffb347"/>
      <stop offset="1" stop-color="#ef7e24"/>
    </linearGradient>
  </defs>
  <rect width="1280" height="720" fill="url(#sky)"/>
  <rect y="410" width="1280" height="310" fill="url(#grass)"/>
  <ellipse cx="640" cy="515" rx="410" ry="70" fill="#6a422f" opacity="0.8"/>
  <ellipse cx="415" cy="520" rx="90" ry="25" fill="#4f301f"/>
  <ellipse cx="640" cy="520" rx="120" ry="34" fill="#4f301f"/>
  <ellipse cx="865" cy="520" rx="90" ry="25" fill="#4f301f"/>
  <g transform="translate(640 410)">
    <circle cx="0" cy="-40" r="150" fill="url(#mole)" stroke="#a14f12" stroke-width="10"/>
    <circle cx="-70" cy="-145" r="40" fill="url(#mole)" stroke="#a14f12" stroke-width="10"/>
    <circle cx="70" cy="-145" r="40" fill="url(#mole)" stroke="#a14f12" stroke-width="10"/>
    <ellipse cx="0" cy="45" rx="70" ry="90" fill="#ffd89b"/>
    <circle cx="-45" cy="-55" r="24" fill="#2b1408"/>
    <circle cx="45" cy="-55" r="24" fill="#2b1408"/>
    <circle cx="-36" cy="-62" r="8" fill="#fff"/>
    <circle cx="54" cy="-62" r="8" fill="#fff"/>
    <ellipse cx="0" cy="-10" rx="16" ry="14" fill="#9a4f19"/>
    <rect x="-10" y="8" width="10" height="50" rx="5" fill="#fff"/>
    <rect x="10" y="8" width="10" height="50" rx="5" fill="#fff"/>
    <rect x="-14" y="8" width="6" height="55" rx="3" fill="#7b3d16"/>
    <rect x="18" y="8" width="6" height="55" rx="3" fill="#7b3d16"/>
    <path d="M-135 20c26 14 31 42 24 72" fill="none" stroke="#a14f12" stroke-width="12" stroke-linecap="round"/>
    <path d="M135 20c-26 14-31 42-24 72" fill="none" stroke="#a14f12" stroke-width="12" stroke-linecap="round"/>
  </g>
</svg>
